{"title":"Samurai Avenger The.Blind Wolf.2009.DVDRIP.H264.FEEL-FREE","uid":5727735,"size":1780064522,"categoryP":"video","categoryS":"movies","magnet":"?xt=urn:btih:132735b1f8472b80ec2d17eaed326eb4eed94f3a&amp;dn=Samurai+Avenger+The.Blind+Wolf.2009.DVDRIP.H264.FEEL-FREE&amp;tr=udp%3A%2F%2Ftracker.openbittorrent.com%3A80&amp;tr=udp%3A%2F%2Fopen.demonii.com%3A1337&amp;tr=udp%3A%2F%2Ftracker.coppersurfer.tk%3A6969&amp;tr=udp%3A%2F%2Fexodus.desync.com%3A6969","seeders":0,"leechers":1,"uploader":"neon","files":10,"time":1280523774,"description":"Genre:Action\nLanguage:English/Japanese\nIMDb:http://www.imdb.com/title/tt1243972/\nSource:DVDR-SADPANDA\nSubtitles:English.where needed\n..............................................\nGeneral\nComplete name :Samurai.Avenger.The.Blind.Wolf.2009.DVDRIP.H264.FEEL-FREE\nFormat : MPEG-4\nFormat profile : Base Media\nCodec ID : isom\nFile size : 1.66 GiB\nDuration : 1h 31mn\nOverall bit rate : 2 594 Kbps\n...............................................\nVideo\nID : 1\nFormat : MPEG-4 Visual\nFormat profile : Simple@L1\nFormat settings, BVOP : No\nFormat settings, QPel : No\nFormat settings, GMC : No warppoints\nFormat settings, Matrix : Default (H.263)\nCodec ID : 20\nDuration : 1h 31mn\nBit rate mode : Variable\nBit rate : 2 354 Kbps\nWidth : 652 pixels\nHeight : 352 pixels\nDisplay aspect ratio : 1.852\nFrame rate mode : Constant\nFrame rate : 23.976 fps\nResolution : 24 bits\nColorimetry : 4:2:0\nScan type : Progressive\nBits/(Pixel*Frame) : 0.428\nStream size : 1.50 GiB (91%)\n..................................................\nAudio\nID : 2\nFormat : AAC\nFormat/Info : Advanced Audio Codec\nFormat version : Version 4\nFormat profile : LC\nFormat settings, SBR : No\nCodec ID : 40\nDuration : 1h 31mn\nBit rate mode : Variable\nBit rate : 235 Kbps\nChannel(s) : 6 channels\nChannel positions : Front: L C R, Rear: L R, LFE\nSampling rate : 48.0 KHz\nResolution : 16 bits\nStream size : 154 MiB (9%)\n..................................................\nPlot:\nBlind Swordsman vs. Seven Assassins. A classic tale of revenge.\n...................................................\n &lt;a href=&quot;\nhttp://www.starshare.ro/bitbucket/Samurai.Avenger.The.Blind.Wolf.2009.DVDRIP.H264.FEEL-FREE.mp4_thumbs_%5B2010.07.30_20.55.39%5D.jpg&quot; rel=&quot;nofollow&quot; target=&quot;_NEW&quot;&gt;\nhttp://www.starshare.ro/bitbucket/Samurai.Avenger.The.Blind.Wolf.2009.DVDRIP.H264.FEEL-FREE.mp4_thumbs_%5B2010.07.30_20.55.39%5D.jpg&lt;/a&gt;\n &lt;a href=&quot;\nhttp://www.starshare.ro/bitbucket/Samurai.Avenger.The.Blind.Wolf.2009.DVDRIP.H264.FEEL-FREE.mp4_snapshot_00.08.42_%5B2010.07.30_20.55.48%5D.jpg&quot; rel=&quot;nofollow&quot; target=&quot;_NEW&quot;&gt;\nhttp://www.starshare.ro/bitbucket/Samurai.Avenger.The.Blind.Wolf.2009.DVDRIP.H264.FEEL-FREE.mp4_snapshot_00.08.42_%5B2010.07.30_20.55.48%5D.jpg&lt;/a&gt;\n &lt;a href=&quot;\nhttp://www.starshare.ro/bitbucket/Samurai.Avenger.The.Blind.Wolf.2009.DVDRIP.H264.FEEL-FREE.mp4_snapshot_00.19.24_%5B2010.07.30_20.55.50%5D.jpg&quot; rel=&quot;nofollow&quot; target=&quot;_NEW&quot;&gt;\nhttp://www.starshare.ro/bitbucket/Samurai.Avenger.The.Blind.Wolf.2009.DVDRIP.H264.FEEL-FREE.mp4_snapshot_00.19.24_%5B2010.07.30_20.55.50%5D.jpg&lt;/a&gt;\n &lt;a href=&quot;\nhttp://www.starshare.ro/bitbucket/Samurai.Avenger.The.Blind.Wolf.2009.DVDRIP.H264.FEEL-FREE.mp4_snapshot_00.32.15_%5B2010.07.30_20.56.24%5D.jpg&quot; rel=&quot;nofollow&quot; target=&quot;_NEW&quot;&gt;\nhttp://www.starshare.ro/bitbucket/Samurai.Avenger.The.Blind.Wolf.2009.DVDRIP.H264.FEEL-FREE.mp4_snapshot_00.32.15_%5B2010.07.30_20.56.24%5D.jpg&lt;/a&gt;\n &lt;a href=&quot;\nhttp://www.starshare.ro/bitbucket/Samurai.Avenger.The.Blind.Wolf.2009.DVDRIP.H264.FEEL-FREE.mp4_snapshot_00.32.32_%5B2010.07.30_20.56.22%5D.jpg&quot; rel=&quot;nofollow&quot; target=&quot;_NEW&quot;&gt;\nhttp://www.starshare.ro/bitbucket/Samurai.Avenger.The.Blind.Wolf.2009.DVDRIP.H264.FEEL-FREE.mp4_snapshot_00.32.32_%5B2010.07.30_20.56.22%5D.jpg&lt;/a&gt;","torrent":{"xt":"urn:btih:132735b1f8472b80ec2d17eaed326eb4eed94f3a","amp;dn":"Samurai+Avenger+The.Blind+Wolf.2009.DVDRIP.H264.FEEL-FREE","amp;tr":["udp%3A%2F%2Ftracker.openbittorrent.com%3A80","udp%3A%2F%2Fopen.demonii.com%3A1337","udp%3A%2F%2Ftracker.coppersurfer.tk%3A6969","udp%3A%2F%2Fexodus.desync.com%3A6969"],"infoHash":"132735b1f8472b80ec2d17eaed326eb4eed94f3a","infoHashBuffer":{"type":"Buffer","data":[19,39,53,177,248,71,43,128,236,45,23,234,237,50,110,180,238,217,79,58]},"announce":[],"urlList":[]}}